<?xml version="1.0" encoding="utf-8"?>
<!-- Generator: Adobe Illustrator 24.2.0, SVG Export Plug-In . SVG Version: 6.00 Build 0)  -->
<svg version="1.1" id="Layer_1" xmlns="http://www.w3.org/2000/svg" xmlns:xlink="http://www.w3.org/1999/xlink" x="0px" y="0px"
	 viewBox="0 0 400 400" style="enable-background:new 0 0 400 400;" xml:space="preserve">
<style type="text/css">
	.st0{fill:#FAA31B;}
	.st1{fill:#13213C;}
</style>
<g>
	<path class="st0" d="M5.4,301.5c4.01-5.07,8.87-7.6,14.57-7.6c2.74,0,5.75,0.53,9.03,1.58c3.27,1.06,5.43,1.8,6.49,2.22
		c6.12,2.11,12.56,3.17,19.32,3.17c10.77,0,20.85-2.53,30.24-7.6c9.39-5.07,16.41-11.93,21.06-20.58
		c12.03-22.38,18.05-48.55,18.05-78.54c0-13.72-1.27-29.77-3.8-48.13c-5.91,0.21-11.14,1.27-15.68,3.17
		c-4.54,1.9-10.4,4.96-17.58,9.18c-4.86,2.75-10.03,4.12-15.52,4.12c-3.38,0-6.44-0.42-9.18-1.27c-2.33-0.63-4.7-1.74-7.13-3.33
		c-2.43-1.58-4.07-3.33-4.91-5.23c-0.63-1.27-0.95-2.64-0.95-4.12c0-2.11,0.74-4.12,2.22-6.02c1.48-1.9,3.27-3.37,5.38-4.43
		c15.83-7.6,30.82-14.04,44.97-19.32c3.37-1.05,7.49-1.79,12.35-2.22c4.43-0.42,7.7-0.95,9.82-1.58c6.33-1.47,11.61-2.22,15.83-2.22
		c8.65,0,16.47,3.06,23.43,9.18v18.05c0.21,5.91,0.32,14.88,0.32,26.92v11.08l-0.32,8.87c-0.43,18.79-1.37,34.68-2.85,47.66
		c-1.48,12.99-4.65,25.71-9.5,38.16c-5.49,13.73-12.83,24.81-22.01,33.25c-9.18,8.45-20.85,14.04-34.99,16.78
		c-10.98,2.32-21.33,3.48-31.03,3.48c-13.51,0-26.18-2.64-38-7.92C16.8,314.48,10.26,308.89,5.4,301.5z"/>
	<path class="st1" d="M370.53,315.27c2.11,1.8,3.59,4.91,4.43,9.34c-7.6,2.96-15.52,4.43-23.75,4.43c-5.28,0-10.45-0.63-15.52-1.9
		c-17.95-4.43-33.84-9.92-47.66-16.47c-13.83-6.54-26.24-15.41-37.21-26.6l-4.75-4.75c-6.76-5.91-11.51-11.29-14.25-16.15
		c-2.53-4.64-6.13-6.97-10.77-6.97c-2.53,0-4.86,0.74-6.97,2.22c-2.12,1.48-3.7,3.48-4.75,6.02c-4.43,10.56-7.18,17.1-8.23,19.63
		c-1.48,3.38-3.17,7.39-5.07,12.03c-1.9,4.65-4.22,9.93-6.97,15.83c-2.12,1.27-3.38,1.9-3.8,1.9c-8.02-0.42-13.57-1.37-16.62-2.85
		c-3.06-1.47-4.59-4.22-4.59-8.23c0-3.37,0.95-8.23,2.85-14.57c8.23-27.23,16.47-48.77,24.7-64.6c2.53-4.64,4.96-9.98,7.28-15.99
		c2.32-6.02,4.43-11.98,6.33-17.89c3.59-9.71,5.91-15.83,6.97-18.37l41.17-99.75c2.96-0.42,5.17-0.63,6.65-0.63
		c8.02,0,15.52,2.64,22.48,7.92c3.37,2.53,5.07,5.38,5.07,8.55c0,2.11-0.53,4.23-1.58,6.33c-12.46,26.6-26.5,57.11-42.12,91.52
		c-3.8,8.87-6.02,16.15-6.65,21.85l31.03-19.95l16.78-11.4c21.95-14.99,37.05-25.12,45.28-30.4c9.92-6.54,19.53-9.82,28.82-9.82
		c7.17,0,14.35,2.01,21.53,6.02c1.48,0.85,4.33,2.96,8.55,6.33c-0.21-0.21,1.58,1.27,5.38,4.43c-0.84,0.63-2.64,2.33-5.38,5.07
		c-3.59,3.17-6.23,4.96-7.91,5.38c-7.6,1.48-14.62,3.91-21.06,7.28c-6.44,3.38-14.62,8.13-24.54,14.25
		c-29.14,18.37-53.63,34.31-73.47,47.82c-3.17,2.11-5.38,3.85-6.65,5.22c-1.27,1.38-1.9,2.8-1.9,4.28c0,2.11,1.27,5.7,3.8,10.77
		c15.41,32.09,42.01,51.09,79.8,57c7.81,1.48,15.94,2.43,24.39,2.85C365.46,312.47,368.42,313.48,370.53,315.27z"/>
</g>
</svg>
